<svg viewBox="0 0 150 150" version="1.1" xmlns="http://www.w3.org/2000/svg" desc="Created with imagetracer.js version 1.2.6"><path fill="rgb(0,0,0)" stroke="rgb(0,0,0)" stroke-width="1" opacity="0" d="M 0 0 L 150 0 L 150 150 L 0 150 L 0 0 Z M 74 30 Q 65 35 63 48 L 64 61 Q 65 66 70 69 L 75 68 L 79 69 L 84 68 L 86 65 L 88 57 Q 89 41 82 34 Q 80 29 74 30 Z M 10 72 Q 8 74 9 81 L 9 83 Q 11 89 8 91 L 10 95 Q 9 98 12 97 Q 14 95 13 90 L 22 97 L 25 96 L 17 86 L 25 75 Q 26 72 22 73 L 17 79 L 14 81 L 13 74 L 10 72 Z M 43 72 L 35 74 L 29 81 Q 28 89 31 93 L 37 97 Q 46 99 50 95 L 54 88 L 52 77 L 59 77 L 59 97 L 63 97 L 64 82 L 73 95 Q 74 98 79 97 L 79 75 L 78 73 L 74 75 L 75 78 L 74 80 Q 73 84 75 86 L 75 88 L 66 77 Q 59 69 43 72 Z M 97 72 L 90 74 Q 85 77 84 83 Q 83 89 86 93 L 93 97 L 102 97 L 105 95 Q 106 91 104 90 L 99 93 L 93 92 Q 87 90 89 82 L 95 77 L 111 77 L 111 97 L 114 97 L 115 96 L 115 87 L 126 87 L 126 96 L 130 97 L 131 96 L 131 75 L 127 73 Q 125 76 126 82 Q 123 84 117 83 Q 113 81 115 75 L 113 72 L 108 73 L 107 72 L 97 72 Z M 139 73 L 137 75 L 137 96 L 141 97 L 142 95 L 142 76 L 141 75 Q 142 72 139 73 Z " /><path fill="rgb(0,0,0)" stroke="rgb(0,0,0)" stroke-width="1" opacity="0" d="M 38.5 77 L 48 77 L 48 80.5 Q 50.5 82 49 87.5 L 46.5 91 Q 44.8 93.8 39.5 93 L 36 92 L 33 86.5 L 33 83.5 L 38.5 77 Z " /><path fill="rgb(135,156,106)" stroke="rgb(135,156,106)" stroke-width="1" opacity="0.09019607843137255" d="M 73.5 30 Q 80.4 29.1 82 33.5 Q 89.2 40.8 88 56.5 L 85 67 L 81.5 69 L 78.5 69 L 74.5 68 L 69.5 69 Q 65.3 66.3 64 60.5 L 63 47.5 Q 65 35.5 73.5 30 Z M 76 31 L 74 32 L 66 41 Q 67 46 64 49 L 66 64 L 71 68 L 75 66 L 82 68 L 85 65 L 86 61 Q 89 42 81 35 L 76 31 Z " /><path fill="rgb(135,156,106)" stroke="rgb(135,156,106)" stroke-width="1" opacity="0.09019607843137255" d="M 72.5 38 L 74 41 Q 70.5 42.1 72.5 38 Z " /><path fill="rgb(135,156,106)" stroke="rgb(135,156,106)" stroke-width="1" opacity="0.09019607843137255" d="M 78.5 38 L 80 41 L 77 40.5 L 78.5 38 Z " /><path fill="rgb(135,156,106)" stroke="rgb(135,156,106)" stroke-width="1" opacity="0.09019607843137255" d="M 75 42 Q 78 41 77 44 Q 74 45 75 42 Z " /><path fill="rgb(135,156,106)" stroke="rgb(135,156,106)" stroke-width="1" opacity="0.09019607843137255" d="M 78.5 44 Q 81.5 45.6 80 51 Q 77 52.3 78 48.5 L 79 45.5 L 78.5 44 Z " /><path fill="rgb(135,156,106)" stroke="rgb(135,156,106)" stroke-width="1" opacity="0.09019607843137255" d="M 75.5 46 Q 78.1 45.3 77 48 L 74 47.5 L 75.5 46 Z " /><path fill="rgb(135,156,106)" stroke="rgb(135,156,106)" stroke-width="1" opacity="0.09019607843137255" d="M 72.5 48 Q 75.5 49.5 72.5 51 Q 69.5 49.5 72.5 48 Z " /><path fill="rgb(135,156,106)" stroke="rgb(135,156,106)" stroke-width="1" opacity="0.09019607843137255" d="M 79 64 L 81 64.5 L 79 65.5 L 79 64 Z " /><path fill="rgb(135,156,106)" stroke="rgb(135,156,106)" stroke-width="1" opacity="0.09019607843137255" d="M 10 72 L 13 73.5 L 13.5 81 L 17 79 L 21.5 73 L 25 74.5 L 17 85.5 L 25 95.5 L 21.5 97 L 13 89.5 L 12.5 95 L 11.5 74 L 10 75.5 L 9.5 94 L 9 74.5 L 10 72 Z M 23 74 L 18 80 L 23 76 L 23 74 Z M 18 80 L 13 86 L 21 93 L 15 86 L 18 82 L 18 80 Z " /><path fill="rgb(135,156,106)" stroke="rgb(135,156,106)" stroke-width="1" opacity="0.09019607843137255" d="M 43.5 72 L 42.5 74 L 43.5 72 Z " /><path fill="rgb(135,156,106)" stroke="rgb(135,156,106)" stroke-width="1" opacity="0.09019607843137255" d="M 49.5 72 L 58 72.5 L 46.5 74 L 46.5 73 L 49.5 72 Z " /><path fill="rgb(135,156,106)" stroke="rgb(135,156,106)" stroke-width="1" opacity="0.09019607843137255" d="M 111.5 72 L 115 74.5 Q 113.2 81.2 116.5 83 L 119 83.5 L 115.5 84 L 114 82.5 L 114 74.5 L 112.5 73 L 111.5 72 Z " /><path fill="rgb(135,156,106)" stroke="rgb(135,156,106)" stroke-width="1" opacity="0.09019607843137255" d="M 36.5 73 L 41 73.5 Q 34.8 73.8 32 77.5 L 30 81.5 L 30 87.5 L 33.5 93 Q 36.4 97.1 44.5 96 L 52 89.5 Q 53.1 81.3 51 78 Q 48.3 76.9 49 79.5 L 51 84.5 L 50 89.5 L 47.5 92 Q 45.2 95.2 38.5 94 L 34 90.5 Q 31.3 88.2 32 82.5 L 37.5 76 L 54 76.5 L 52 77 L 54 87.5 L 49.5 95 Q 45.8 98.3 37.5 97 L 31 92.5 Q 27.7 88.8 29 80.5 L 34.5 74 L 36.5 73 Z M 39 77 L 33 84 L 33 87 L 36 92 L 40 93 L 46 92 L 49 88 Q 51 82 48 81 L 48 77 L 39 77 Z " /><path fill="rgb(135,156,106)" stroke="rgb(135,156,106)" stroke-width="1" opacity="0.09019607843137255" d="M 60.5 73 Q 65.5 72.5 66 76.5 L 67 80 Q 69.7 78.9 69 81.5 L 74.5 88 L 75.5 84 L 76 88.5 Q 74 92 72 87.5 L 61.5 74 L 60.5 73 Z " /><path fill="rgb(135,156,106)" stroke="rgb(135,156,106)" stroke-width="1" opacity="0.09019607843137255" d="M 77.5 73 L 78.5 75 L 77.5 73 Z " /><path fill="rgb(135,156,106)" stroke="rgb(135,156,106)" stroke-width="1" opacity="0.09019607843137255" d="M 129.5 73 L 131 74.5 L 131 95.5 L 127.5 97 L 127.5 96 L 130 94.5 L 130 74.5 L 129.5 73 Z " /><path fill="rgb(135,156,106)" stroke="rgb(135,156,106)" stroke-width="1" opacity="0.09019607843137255" d="M 140.5 73 L 142 75.5 L 140 76.5 L 140 74.5 L 140.5 73 Z " /><path fill="rgb(135,156,106)" stroke="rgb(135,156,106)" stroke-width="1" opacity="0.09019607843137255" d="M 89.5 74 L 90 76 Q 87.3 74.9 88 77.5 L 86 79.5 L 86 89.5 L 88 94 Q 91.6 97.1 100.5 96 L 104 94 L 103 91.5 L 105 91 L 105 95 L 103.5 95 Q 100.6 98.6 92.5 97 L 86 92.5 Q 83.3 89.2 84 82.5 Q 85.3 76.8 89.5 74 Z " /><path fill="rgb(135,156,106)" stroke="rgb(135,156,106)" stroke-width="1" opacity="0.09019607843137255" d="M 137.5 74 L 138 76.5 L 137 76.5 L 137.5 74 Z " /><path fill="rgb(135,156,106)" stroke="rgb(135,156,106)" stroke-width="1" opacity="0.09019607843137255" d="M 126.5 75 L 127 83 L 120.5 84 L 120.5 83 Q 125 84 126 81.5 L 126.5 75 Z " /><path fill="rgb(135,156,106)" stroke="rgb(135,156,106)" stroke-width="1" opacity="0.09019607843137255" d="M 58.5 76 L 60 77.5 L 60 96 L 62 95.5 L 62 80.5 L 64.5 80 L 75.5 96 L 78 95.5 L 78 76.5 L 79 76.5 L 79 95.5 L 77.5 97 Q 73.5 97.5 73 94.5 L 63.5 82 L 63 97 L 59 95.5 L 59 77.5 L 58.5 76 Z " /><path fill="rgb(135,156,106)" stroke="rgb(135,156,106)" stroke-width="1" opacity="0.09019607843137255" d="M 93.5 76 L 98 76.5 Q 90.7 76.2 89 81.5 Q 87.3 87.8 90 89.5 L 88 88.5 Q 86 79 91.5 77 L 93.5 76 Z " /><path fill="rgb(135,156,106)" stroke="rgb(135,156,106)" stroke-width="1" opacity="0.09019607843137255" d="M 105.5 76 L 110 76.5 L 105.5 77 L 105.5 76 Z " /><path fill="rgb(135,156,106)" stroke="rgb(135,156,106)" stroke-width="1" opacity="0.09019607843137255" d="M 111.5 78 L 112 84.5 L 111 84.5 L 111.5 78 Z " /><path fill="rgb(135,156,106)" stroke="rgb(135,156,106)" stroke-width="1" opacity="0.09019607843137255" d="M 140 78 L 142 78.5 L 142 94.5 L 141 97 L 137 95.5 L 137.5 92 L 138 96 L 141 94.5 Q 142 84 140 78 Z " /><path fill="rgb(135,156,106)" stroke="rgb(135,156,106)" stroke-width="1" opacity="0.09019607843137255" d="M 74 80 Q 77.3 78.9 76 83 Q 72.7 84.1 74 80 Z " /><path fill="rgb(135,156,106)" stroke="rgb(135,156,106)" stroke-width="1" opacity="0.09019607843137255" d="M 111.5 86 L 112 96 L 114 95.5 L 114 86 L 123.5 86 L 123.5 87 L 115 87 L 115 95.5 L 111 97 L 111.5 86 Z " /><path fill="rgb(135,156,106)" stroke="rgb(135,156,106)" stroke-width="1" opacity="0.09019607843137255" d="M 125.5 86 Q 128.3 85.4 127 91.5 L 126 91.5 L 125.5 86 Z " /><path fill="rgb(135,156,106)" stroke="rgb(135,156,106)" stroke-width="1" opacity="0.09019607843137255" d="M 101.5 91 L 99.5 94 L 95 93.5 L 101.5 91 Z " /><path fill="rgb(135,156,106)" stroke="rgb(135,156,106)" stroke-width="1" opacity="0.09019607843137255" d="M 10.5 95 L 11.5 97 Q 8.7 97.7 10.5 95 Z " /><path fill="rgb(138,174,103)" stroke="rgb(138,174,103)" stroke-width="1" opacity="0.7686274509803922" d="M 75.5 31 L 81 34.5 Q 88.5 42 86 59.5 L 82.5 67 L 79.5 68 Q 78.8 65.2 74.5 66 L 71.5 68 L 67 64.5 Q 63.4 57.6 65 45.5 Q 66.8 36.3 73.5 32 L 75.5 31 Z M 74 37 L 71 42 L 75 40 L 74 37 Z M 79 38 L 77 40 Q 76 42 79 41 L 80 42 L 79 38 Z M 76 42 L 72 45 L 73 47 L 75 44 L 79 45 L 79 43 L 76 42 Z M 80 45 L 78 49 L 79 53 L 80 53 L 80 45 Z M 76 46 L 74 48 Q 76 51 77 48 Q 78 45 76 46 Z M 71 48 L 73 54 L 74 50 L 71 48 Z M 76 51 L 74 53 L 77 54 Q 78 50 76 51 Z M 82 52 L 78 60 Q 76 61 79 62 L 82 57 L 82 52 Z M 68 54 L 67 58 L 68 58 L 68 54 Z M 71 54 L 71 60 Q 73 64 75 61 L 71 54 Z M 74 55 L 77 58 L 78 56 L 77 56 L 74 55 Z M 84 56 L 81 63 Q 76 62 77 65 L 81 66 L 84 61 L 84 56 Z M 68 60 L 69 65 L 73 66 L 74 63 L 70 62 Q 71 59 68 60 Z " /><path fill="rgb(138,174,103)" stroke="rgb(138,174,103)" stroke-width="1" opacity="0.7686274509803922" d="M 11.5 74 L 12 95.5 L 10 94.5 L 10 75.5 L 11.5 74 Z " /><path fill="rgb(138,174,103)" stroke="rgb(138,174,103)" stroke-width="1" opacity="0.7686274509803922" d="M 22.5 74 L 23 75.5 L 15 85.5 L 23 94.5 L 13 85.5 L 22.5 74 Z " /><path fill="rgb(138,174,103)" stroke="rgb(138,174,103)" stroke-width="1" opacity="0.7686274509803922" d="M 38.5 74 L 61.5 74 L 64 76.5 L 75.5 92 L 76.5 74 L 77 95.5 L 75 94.5 L 62.5 78 L 61.5 96 L 60 94.5 L 60 78 Q 63 79 62 76 L 59.5 75 L 40.5 75 L 34 78.5 Q 31.2 81.2 32 87.5 L 36.5 93 L 44.5 94 L 50 89.5 L 51 83.5 L 49 78 Q 51.7 76.9 51 79.5 L 52 80.5 L 52 89.5 Q 49.3 96.3 39.5 96 L 33 93 Q 30.3 90 30 83.5 L 34.5 76 L 38.5 74 Z " /><path fill="rgb(138,174,103)" stroke="rgb(138,174,103)" stroke-width="1" opacity="0.7686274509803922" d="M 93.5 74 L 113 74 L 113 82.5 L 114.5 84 L 128 84 L 128.5 74 L 129 95.5 L 128 95.5 L 128 85 L 114.5 85 L 113 86.5 L 112.5 96 L 112 75 L 95.5 75 L 88 79.5 L 87 87.5 L 92.5 94 Q 100.2 95.2 103.5 92 L 101.5 95 L 94.5 96 L 86 89.5 Q 84 79 89.5 76 L 93.5 74 Z " /><path fill="rgb(138,174,103)" stroke="rgb(138,174,103)" stroke-width="1" opacity="0.7686274509803922" d="M 138 75 L 140 75.5 L 140 95.5 L 138 94.5 L 138 75 Z " /><path fill="rgb(174,197,119)" stroke="rgb(174,197,119)" stroke-width="1" opacity="0.25098039215686274" d="M 73.5 37 L 75 39.5 L 73 38.5 L 73.5 37 Z " /><path fill="rgb(174,197,119)" stroke="rgb(174,197,119)" stroke-width="1" opacity="0.25098039215686274" d="M 71.5 40 L 72.5 42 Q 69.7 42.7 71.5 40 Z " /><path fill="rgb(174,197,119)" stroke="rgb(174,197,119)" stroke-width="1" opacity="0.25098039215686274" d="M 73.5 43 L 75 43.5 L 72.5 47 L 72 44.5 L 73.5 43 Z " /><path fill="rgb(174,197,119)" stroke="rgb(174,197,119)" stroke-width="1" opacity="0.25098039215686274" d="M 64.5 48 L 65 54.5 L 64 54.5 L 64.5 48 Z " /><path fill="rgb(174,197,119)" stroke="rgb(174,197,119)" stroke-width="1" opacity="0.25098039215686274" d="M 71.5 50 L 73 53.5 L 72 53.5 L 71.5 50 Z " /><path fill="rgb(174,197,119)" stroke="rgb(174,197,119)" stroke-width="1" opacity="0.25098039215686274" d="M 75.5 51 Q 78.5 50.2 77 54 L 74 52.5 L 75.5 51 Z " /><path fill="rgb(174,197,119)" stroke="rgb(174,197,119)" stroke-width="1" opacity="0.25098039215686274" d="M 81.5 52 L 82 56.5 L 78.5 62 Q 75.8 60.8 78 59.5 L 81.5 52 Z " /><path fill="rgb(174,197,119)" stroke="rgb(174,197,119)" stroke-width="1" opacity="0.25098039215686274" d="M 67.5 54 L 68 57.5 L 67 57.5 L 67.5 54 Z " /><path fill="rgb(174,197,119)" stroke="rgb(174,197,119)" stroke-width="1" opacity="0.25098039215686274" d="M 70.5 54 L 75 60.5 Q 73 64 71 59.5 L 71.5 58 Q 68 58.8 70.5 54 Z " /><path fill="rgb(174,197,119)" stroke="rgb(174,197,119)" stroke-width="1" opacity="0.25098039215686274" d="M 78.5 54 L 78 55.5 L 76.5 58 L 73 55.5 L 74.5 55 L 76.5 56 L 78.5 54 Z " /><path fill="rgb(174,197,119)" stroke="rgb(174,197,119)" stroke-width="1" opacity="0.25098039215686274" d="M 83.5 56 L 84 60.5 L 80.5 66 L 80.5 64 L 77 65 Q 75.7 61.7 80.5 63 L 83.5 56 Z " /><path fill="rgb(174,197,119)" stroke="rgb(174,197,119)" stroke-width="1" opacity="0.25098039215686274" d="M 68 60 Q 70.7 58.9 70 61.5 L 74 63 L 72.5 66 L 69 64.5 L 68 60 Z " /><path fill="rgb(174,197,119)" stroke="rgb(174,197,119)" stroke-width="1" opacity="0.25098039215686274" d="M 42.5 72 L 44.5 72 L 60 73.5 L 49.5 74 L 46.5 73 L 43.5 74 L 41 73.5 L 42.5 72 Z " /><path fill="rgb(174,197,119)" stroke="rgb(174,197,119)" stroke-width="1" opacity="0.25098039215686274" d="M 96.5 72 L 106.5 72 L 107.5 73 L 110.5 72 L 114 74.5 L 114 82.5 L 115 83.5 L 113 82.5 L 113 74 L 94.5 74 L 94.5 73 L 96.5 72 Z " /><path fill="rgb(174,197,119)" stroke="rgb(174,197,119)" stroke-width="1" opacity="0.25098039215686274" d="M 75 73 L 79 75.5 L 78 76.5 L 78 95.5 L 78.5 97 L 77 95.5 L 76.5 74 L 76 80 L 74 79.5 L 75 76.5 L 75 74.5 L 75 73 Z " /><path fill="rgb(174,197,119)" stroke="rgb(174,197,119)" stroke-width="1" opacity="0.25098039215686274" d="M 92.5 73 L 93 75 L 90.5 76 L 90 74 L 92.5 73 Z " /><path fill="rgb(174,197,119)" stroke="rgb(174,197,119)" stroke-width="1" opacity="0.25098039215686274" d="M 128.5 73 L 130 74.5 L 130 94.5 L 129 94.5 L 128.5 74 L 128 84 L 124 82.5 L 125.5 83 L 127 82.5 L 127 74.5 L 128.5 73 Z " /><path fill="rgb(174,197,119)" stroke="rgb(174,197,119)" stroke-width="1" opacity="0.25098039215686274" d="M 138 73 Q 140.7 71.9 140 74.5 L 142 78 L 140 77.5 Q 142.3 76.3 139.5 75 Q 136.9 75.7 138 73 Z " /><path fill="rgb(174,197,119)" stroke="rgb(174,197,119)" stroke-width="1" opacity="0.25098039215686274" d="M 40.5 75 L 59.5 75 L 62 76 L 64 79.5 L 62 80 Q 63.1 77.3 60.5 78 L 56.5 76 L 54.5 77 L 53.5 76 L 40.5 76 L 40.5 75 Z " /><path fill="rgb(174,197,119)" stroke="rgb(174,197,119)" stroke-width="1" opacity="0.25098039215686274" d="M 95.5 75 L 111.5 75 L 112 77.5 L 109.5 76 L 101.5 77 L 99.5 77 L 95.5 76 L 95.5 75 Z " /><path fill="rgb(174,197,119)" stroke="rgb(174,197,119)" stroke-width="1" opacity="0.25098039215686274" d="M 33.5 76 L 32.5 78 L 33.5 76 Z " /><path fill="rgb(174,197,119)" stroke="rgb(174,197,119)" stroke-width="1" opacity="0.25098039215686274" d="M 92.5 76 L 93.5 78 L 92.5 76 Z " /><path fill="rgb(174,197,119)" stroke="rgb(174,197,119)" stroke-width="1" opacity="0.25098039215686274" d="M 35.5 77 L 34.5 79 L 35.5 77 Z " /><path fill="rgb(174,197,119)" stroke="rgb(174,197,119)" stroke-width="1" opacity="0.25098039215686274" d="M 87.5 78 L 90 78.5 L 88.5 80 L 86 79.5 L 87.5 78 Z " /><path fill="rgb(174,197,119)" stroke="rgb(174,197,119)" stroke-width="1" opacity="0.25098039215686274" d="M 137.5 80 L 138 86.5 L 137 86.5 L 137.5 80 Z " /><path fill="rgb(174,197,119)" stroke="rgb(174,197,119)" stroke-width="1" opacity="0.25098039215686274" d="M 87.5 82 L 88 87.5 L 87 87.5 L 87.5 82 Z " /><path fill="rgb(174,197,119)" stroke="rgb(174,197,119)" stroke-width="1" opacity="0.25098039215686274" d="M 140.5 82 L 141 94.5 L 140 94.5 L 140.5 82 Z " /><path fill="rgb(174,197,119)" stroke="rgb(174,197,119)" stroke-width="1" opacity="0.25098039215686274" d="M 74 83 L 76 83.5 L 74 84.5 L 74 83 Z " /><path fill="rgb(174,197,119)" stroke="rgb(174,197,119)" stroke-width="1" opacity="0.25098039215686274" d="M 70.5 85 L 71.5 87 L 70.5 85 Z " /><path fill="rgb(174,197,119)" stroke="rgb(174,197,119)" stroke-width="1" opacity="0.25098039215686274" d="M 114.5 85 L 128 85 L 128 96 Q 124.7 97.3 126 92.5 L 127 86 L 124.5 87 L 123.5 86 L 114 86 L 113.5 96 L 113 86.5 L 114.5 85 Z " /><path fill="rgb(174,197,119)" stroke="rgb(174,197,119)" stroke-width="1" opacity="0.25098039215686274" d="M 69.5 87 Q 72.5 88.5 69.5 90 Q 66.5 88.5 69.5 87 Z " /><path fill="rgb(174,197,119)" stroke="rgb(174,197,119)" stroke-width="1" opacity="0.25098039215686274" d="M 73.5 89 L 76 89.5 L 75.5 92 L 73.5 89 Z " /><path fill="rgb(174,197,119)" stroke="rgb(174,197,119)" stroke-width="1" opacity="0.25098039215686274" d="M 88.5 89 L 95 93.5 L 92 94.5 L 94 95.5 L 92.5 96 L 88 94 L 87 91.5 L 90.5 94 L 92 93.5 L 88.5 89 Z " /><path fill="rgb(174,197,119)" stroke="rgb(174,197,119)" stroke-width="1" opacity="0.25098039215686274" d="M 103.5 90 L 101.5 93 L 103.5 90 Z " /><path fill="rgb(174,197,119)" stroke="rgb(174,197,119)" stroke-width="1" opacity="0.25098039215686274" d="M 45.5 91 L 46.5 93 L 45.5 91 Z " /><path fill="rgb(174,197,119)" stroke="rgb(174,197,119)" stroke-width="1" opacity="0.25098039215686274" d="M 74.5 93 L 76 95.5 L 74 94.5 L 74.5 93 Z " /><path fill="rgb(174,197,119)" stroke="rgb(174,197,119)" stroke-width="1" opacity="0.25098039215686274" d="M 60.5 95 L 59.5 97 L 60.5 95 Z " /><path fill="rgb(174,197,119)" stroke="rgb(174,197,119)" stroke-width="1" opacity="0.25098039215686274" d="M 99.5 95 L 102 96.5 L 100.5 96 L 99.5 95 Z " /></svg>